<?xml version="1.0" encoding="UTF-8" standalone="no"?>
<svg xmlns:dc="http://purl.org/dc/elements/1.1/" xmlns:cc="http://creativecommons.org/ns#" xmlns:rdf="http://www.w3.org/1999/02/22-rdf-syntax-ns#" xmlns:svg="http://www.w3.org/2000/svg" xmlns="http://www.w3.org/2000/svg" xmlns:sodipodi="http://sodipodi.sourceforge.net/DTD/sodipodi-0.dtd" xmlns:inkscape="http://www.inkscape.org/namespaces/inkscape" viewBox="0 0 1302.5 335" height="335" width="1302.5" xml:space="preserve" version="1.1" id="svg2">
  <metadata id="metadata8"></metadata>
  <defs id="defs6">
    <clipPath id="clipPath28">
      <path d="M 0,1080 H 1920 V 0 H 0 Z" id="path26"></path>
    </clipPath>
  </defs>
  <g id="g997" transform="matrix(2.0240906,0,0,-2.0240906,-1290.8385,1366.4841)" style="stroke-width:0.658739">
    <g id="g14" transform="translate(743.144,611.7749)" style="stroke-width:0.658739">
      <path d="m 0,0 h -42.046 l -7.398,-17.833 h 41.9 z" style="fill:#f68712;fill-opacity:1;fill-rule:nonzero;stroke:none;stroke-width:0.658739" id="path16"></path>
    </g>
    <g id="g18" transform="translate(753.0156,663.0381)" style="stroke-width:0.658739">
      <path d="M 0,0 H 22.053 V -77.323 H 69.836 L 62.319,-95.292 H 0 Z" style="fill:#1e1f43;fill-opacity:1;fill-rule:nonzero;stroke:none;stroke-width:0.658739" id="path20"></path>
    </g>
    <g id="g22" style="stroke-width:0.658739">
      <g id="g24" clip-path="url(#clipPath28)" style="stroke-width:0.658739">
        <g id="g30" transform="translate(823.1416,609.6748)" style="stroke-width:0.658739">
          <path d="M 0,0 V 53.363 H 22.054 V 0.816 c 0,-18.106 7.895,-25.593 21.236,-25.593 13.478,0 21.237,7.487 21.237,25.593 V 53.363 H 86.309 V 0 c 0,-28.043 -16.064,-43.563 -43.156,-43.563 C 16.063,-43.563 0,-28.043 0,0" style="fill:#1e1f43;fill-opacity:1;fill-rule:nonzero;stroke:none;stroke-width:0.658739" id="path32"></path>
        </g>
        <g id="g34" transform="translate(979.3672,628.4604)" style="stroke-width:0.658739">
          <path d="m 0,0 c 0,10.482 -6.807,16.608 -20.284,16.608 h -17.969 v -33.08 h 17.969 C -6.807,-16.472 0,-10.346 0,0 m 22.326,0 c 0,-21.236 -15.928,-34.442 -41.386,-34.442 H -38.253 V -60.715 H -60.306 V 34.578 H -19.06 C 6.398,34.578 22.326,21.373 22.326,0" style="fill:#1e1f43;fill-opacity:1;fill-rule:nonzero;stroke:none;stroke-width:0.658739" id="path36"></path>
        </g>
        <g id="g38" transform="translate(1177.3701,615.3916)" style="stroke-width:0.658739">
          <path d="m 0,0 c 0,18.105 -12.797,30.494 -29.814,30.494 -17.017,0 -29.812,-12.389 -29.812,-30.494 0,-18.105 12.795,-30.494 29.812,-30.494 C -12.797,-30.494 0,-18.105 0,0 m -81.952,0 c 0,28.315 22.053,49.281 52.138,49.281 29.949,0 52.14,-20.828 52.14,-49.281 0,-28.451 -22.191,-49.279 -52.14,-49.279 -30.085,0 -52.138,20.964 -52.138,49.279" style="fill:#1e1f43;fill-opacity:1;fill-rule:nonzero;stroke:none;stroke-width:0.658739" id="path40"></path>
        </g>
        <g id="g42" transform="translate(1228.8174,645.3403)" style="stroke-width:0.658739">
          <path d="M 0,0 V -33.565 H 26.708 L 18.42,-51.398 H 0 V -77.595 H -22.053 V 17.698 H 49.652 L 41.797,0 Z" style="fill:#1e1f43;fill-opacity:1;fill-rule:nonzero;stroke:none;stroke-width:0.658739" id="path44"></path>
        </g>
        <g id="g46" transform="translate(1072.3574,589.8267)" style="stroke-width:0.658739">
          <path d="M 0,0 H -24.578 L -5.506,-22.081 H 19.071 Z" style="fill:#1e1f43;fill-opacity:1;fill-rule:nonzero;stroke:none;stroke-width:0.658739" id="path48"></path>
        </g>
        <g id="g50" transform="translate(1067.3311,628.4604)" style="stroke-width:0.658739">
          <path d="m 0,0 c 0,10.482 -6.807,16.608 -20.283,16.608 h -17.97 v -33.08 h 17.97 C -6.807,-16.472 0,-10.346 0,0 m 22.326,0 c 0,-21.236 -15.928,-34.442 -41.386,-34.442 H -38.253 V -60.715 H -60.306 V 34.578 H -19.06 C 6.398,34.578 22.326,21.373 22.326,0" style="fill:#1e1f43;fill-opacity:1;fill-rule:nonzero;stroke:none;stroke-width:0.658739" id="path52"></path>
        </g>
        <g id="g54" transform="translate(706.0215,611.7749)" style="stroke-width:0.658739">
          <path d="M 0,0 H 21.72 L -1.278,51.208 h -21.829 l -42.41,-95.237 h 22.569 l 30.635,73.65 z" style="fill:#1e1f43;fill-opacity:1;fill-rule:nonzero;stroke:none;stroke-width:0.658739" id="path56"></path>
        </g>
        <g id="g58" transform="translate(747.2896,567.7646)" style="stroke-width:0.658739">
          <path d="M 0,0 H -23.034 L -32.18,22.005 H -9.717 Z" style="fill:#1e1f43;fill-opacity:1;fill-rule:nonzero;stroke:none;stroke-width:0.658739" id="path60"></path>
        </g>
        <g id="g62" transform="translate(884.1704,528.9736)" style="stroke-width:0.658739">
          <path d="M 0,0 -5.129,11.65 -10.258,0 Z m 1.189,-2.717 h -12.635 l -2.616,-5.944 h -3.499 l 10.768,23.776 h 3.362 L 7.371,-8.661 H 3.804 Z" style="fill:#1e1f43;fill-opacity:1;fill-rule:nonzero;stroke:none;stroke-width:0.658739" id="path64"></path>
        </g>
        <g id="g66" transform="translate(897.144,544.0889)" style="stroke-width:0.658739">
          <path d="M 0,0 H 3.396 V -20.821 H 16.27 v -2.955 H 0 Z" style="fill:#1e1f43;fill-opacity:1;fill-rule:nonzero;stroke:none;stroke-width:0.658739" id="path68"></path>
        </g>
        <g id="g70" transform="translate(918.7798,530.5703)" style="stroke-width:0.658739">
          <path d="M 0,0 V 13.519 H 3.396 V 0.136 c 0,-5.265 2.412,-7.643 6.692,-7.643 4.28,0 6.725,2.378 6.725,7.643 v 13.383 h 3.295 V 0 c 0,-6.896 -3.771,-10.529 -10.054,-10.529 C 3.804,-10.529 0,-6.896 0,0" style="fill:#1e1f43;fill-opacity:1;fill-rule:nonzero;stroke:none;stroke-width:0.658739" id="path72"></path>
        </g>
        <g id="g74" transform="translate(969.9648,520.3125)" style="stroke-width:0.658739">
          <path d="M 0,0 -0.034,17.322 -8.628,2.887 h -1.562 l -8.594,14.334 V 0 h -3.26 v 23.776 h 2.785 L -9.341,7.064 0.441,23.776 H 3.227 L 3.261,0 Z" style="fill:#1e1f43;fill-opacity:1;fill-rule:nonzero;stroke:none;stroke-width:0.658739" id="path76"></path>
        </g>
        <path d="m 982.428,544.089 h 3.396 v -23.776 h -3.396 z" style="fill:#1e1f43;fill-opacity:1;fill-rule:nonzero;stroke:none;stroke-width:0.658739" id="path78"></path>
        <g id="g80" transform="translate(1015.4766,544.0889)" style="stroke-width:0.658739">
          <path d="m 0,0 v -23.776 h -2.785 l -14.266,17.73 v -17.73 h -3.396 V 0 h 2.785 L -3.396,-17.73 V 0 Z" style="fill:#1e1f43;fill-opacity:1;fill-rule:nonzero;stroke:none;stroke-width:0.658739" id="path82"></path>
        </g>
        <path d="m 1024.68,544.089 h 3.396 v -23.776 h -3.396 z" style="fill:#1e1f43;fill-opacity:1;fill-rule:nonzero;stroke:none;stroke-width:0.658739" id="path84"></path>
        <g id="g86" transform="translate(1037.0771,530.5703)" style="stroke-width:0.658739">
          <path d="M 0,0 V 13.519 H 3.396 V 0.136 c 0,-5.265 2.413,-7.643 6.692,-7.643 4.28,0 6.725,2.378 6.725,7.643 v 13.383 h 3.295 V 0 c 0,-6.896 -3.77,-10.529 -10.053,-10.529 C 3.805,-10.529 0,-6.896 0,0" style="fill:#1e1f43;fill-opacity:1;fill-rule:nonzero;stroke:none;stroke-width:0.658739" id="path88"></path>
        </g>
        <g id="g90" transform="translate(1088.2617,520.3125)" style="stroke-width:0.658739">
          <path d="M 0,0 -0.034,17.322 -8.627,2.887 h -1.562 l -8.594,14.334 V 0 h -3.261 v 23.776 h 2.785 L -9.341,7.064 0.441,23.776 H 3.227 L 3.261,0 Z" style="fill:#1e1f43;fill-opacity:1;fill-rule:nonzero;stroke:none;stroke-width:0.658739" id="path92"></path>
        </g>
        <g id="g94" transform="translate(1109.7598,523.0293)" style="stroke-width:0.658739">
          <path d="m 0,0 1.257,2.649 c 1.766,-1.595 4.789,-2.751 7.846,-2.751 4.11,0 5.876,1.597 5.876,3.669 0,5.808 -14.402,2.14 -14.402,10.971 0,3.668 2.854,6.793 9.104,6.793 2.785,0 5.672,-0.747 7.641,-2.106 l -1.12,-2.717 c -2.072,1.325 -4.416,1.936 -6.521,1.936 -4.042,0 -5.775,-1.698 -5.775,-3.77 0,-5.809 14.402,-2.174 14.402,-10.903 0,-3.634 -2.921,-6.759 -9.205,-6.759 C 5.469,-2.988 1.902,-1.766 0,0" style="fill:#1e1f43;fill-opacity:1;fill-rule:nonzero;stroke:none;stroke-width:0.658739" id="path96"></path>
        </g>
        <g id="g98" transform="translate(1143.6904,528.5322)" style="stroke-width:0.658739">
          <path d="m 0,0 v -8.22 h -3.362 v 8.288 l -9.443,15.489 h 3.634 L -1.562,3.023 6.08,15.557 h 3.363 z" style="fill:#1e1f43;fill-opacity:1;fill-rule:nonzero;stroke:none;stroke-width:0.658739" id="path100"></path>
        </g>
        <g id="g102" transform="translate(1155.9521,523.0293)" style="stroke-width:0.658739">
          <path d="m 0,0 1.257,2.649 c 1.766,-1.595 4.789,-2.751 7.846,-2.751 4.11,0 5.876,1.597 5.876,3.669 0,5.808 -14.402,2.14 -14.402,10.971 0,3.668 2.854,6.793 9.104,6.793 2.785,0 5.672,-0.747 7.641,-2.106 l -1.12,-2.717 c -2.072,1.325 -4.416,1.936 -6.521,1.936 -4.042,0 -5.775,-1.698 -5.775,-3.77 0,-5.809 14.402,-2.174 14.402,-10.903 0,-3.634 -2.921,-6.759 -9.205,-6.759 C 5.469,-2.988 1.902,-1.766 0,0" style="fill:#1e1f43;fill-opacity:1;fill-rule:nonzero;stroke:none;stroke-width:0.658739" id="path104"></path>
        </g>
        <g id="g106" transform="translate(1185.6709,541.1338)" style="stroke-width:0.658739">
          <path d="M 0,0 H -8.152 V 2.955 H 11.514 V 0 H 3.362 V -20.821 H 0 Z" style="fill:#1e1f43;fill-opacity:1;fill-rule:nonzero;stroke:none;stroke-width:0.658739" id="path108"></path>
        </g>
        <g id="g110" transform="translate(1220.2129,523.2676)" style="stroke-width:0.658739">
          <path d="M 0,0 V -2.955 H -17.255 V 20.821 H -0.476 V 17.866 H -13.858 V 10.563 H -1.937 V 7.677 H -13.858 V 0 Z" style="fill:#1e1f43;fill-opacity:1;fill-rule:nonzero;stroke:none;stroke-width:0.658739" id="path112"></path>
        </g>
        <g id="g114" transform="translate(1249.8291,520.3125)" style="stroke-width:0.658739">
          <path d="M 0,0 -0.034,17.322 -8.627,2.887 h -1.562 l -8.594,14.334 V 0 h -3.261 v 23.776 h 2.785 L -9.341,7.064 0.441,23.776 H 3.227 L 3.261,0 Z" style="fill:#1e1f43;fill-opacity:1;fill-rule:nonzero;stroke:none;stroke-width:0.658739" id="path116"></path>
        </g>
        <g id="g118" transform="translate(1260.1191,523.0293)" style="stroke-width:0.658739">
          <path d="m 0,0 1.257,2.649 c 1.766,-1.595 4.789,-2.751 7.846,-2.751 4.11,0 5.876,1.597 5.876,3.669 0,5.808 -14.402,2.14 -14.402,10.971 0,3.668 2.854,6.793 9.104,6.793 2.785,0 5.672,-0.747 7.641,-2.106 l -1.12,-2.717 c -2.072,1.325 -4.416,1.936 -6.521,1.936 -4.042,0 -5.775,-1.698 -5.775,-3.77 0,-5.809 14.402,-2.174 14.402,-10.903 0,-3.634 -2.921,-6.759 -9.205,-6.759 C 5.469,-2.988 1.902,-1.766 0,0" style="fill:#1e1f43;fill-opacity:1;fill-rule:nonzero;stroke:none;stroke-width:0.658739" id="path120"></path>
        </g>
      </g>
    </g>
  </g>
</svg>
