<svg class="logo_default" width="175" height="39" viewBox="0 0 175 39" fill="none" xmlns="http://www.w3.org/2000/svg"><path d="M156.986 30.8233C162.595 29.8386 162.723 28.0834 162.723 28.0834C162.851 28.3403 162.937 28.7256 163.023 29.1537C162.466 25.9857 160.754 23.0318 157.928 21.0625H156.986V30.8233Z" fill="#D70B52"/><path d="M163.151 30.7809C163.151 30.4384 163.108 29.8819 163.022 29.3681C163.022 29.2825 162.98 29.1969 162.98 29.1113C162.894 28.726 162.808 28.3407 162.68 28.041C162.68 28.041 162.552 29.7962 156.943 30.7809V38.9149H160.325C160.625 38.5724 160.882 38.2727 161.096 37.9302C162.466 35.8325 163.108 33.478 163.108 31.1234C163.151 31.0378 163.151 30.9093 163.151 30.7809Z" fill="#A3195C"/><path d="M170.215 21.0623C167.004 26.9274 168.502 28.1689 168.502 28.1689C168.203 28.1261 167.86 27.9548 167.518 27.7836C169.744 28.9395 172.312 29.4104 174.924 29.0251V21.0195H170.215V21.0623Z" fill="#D70B52"/><path d="M170.214 21.0625H161.523C162.38 23.3743 163.878 25.3007 165.719 26.6707C165.804 26.7563 165.933 26.7991 166.019 26.8847C166.275 27.056 166.704 27.3556 167.174 27.6125C167.26 27.6553 167.388 27.7409 167.474 27.7837C167.817 27.955 168.159 28.1262 168.459 28.169C168.502 28.169 167.003 26.8847 170.214 21.0625Z" fill="#A3195C"/><path d="M165.718 35.1054C165.89 34.8485 166.189 34.5489 166.532 34.292C164.991 35.5335 163.792 37.1175 162.979 38.9583H171.155C167.345 34.292 165.718 35.1054 165.718 35.1054Z" fill="#D70B52"/><path d="M168.159 33.1784C168.073 33.2212 167.945 33.3069 167.859 33.3497C167.56 33.5637 167.046 33.8634 166.575 34.2487L166.532 34.2915C166.19 34.5484 165.89 34.848 165.719 35.1049C165.719 35.1049 167.346 34.2915 171.198 38.9578H174.923V31.466C172.44 31.4232 170.128 32.0225 168.159 33.1784Z" fill="#A3195C"/><path d="M149.195 30.2239C151.25 28.2975 152.706 25.4292 153.947 21.0625H148.938C147.74 23.2886 146.327 25.0867 144.786 26.5422C144.743 26.585 144.7 26.6279 144.657 26.6707C144.443 26.8419 144.272 27.0132 144.058 27.1844C144.015 27.2272 143.972 27.27 143.887 27.3128C143.63 27.5269 143.373 27.7409 143.116 27.9122C143.073 27.955 143.03 27.955 142.988 27.9978C142.731 28.169 142.474 28.3831 142.217 28.5543C142.217 28.5543 142.174 28.5543 142.174 28.5971C141.532 29.0252 140.89 29.4105 140.248 29.7958C140.333 29.8386 140.462 29.8814 140.547 29.9243C140.505 29.9671 140.462 29.9671 140.376 30.0099C140.333 30.0527 140.248 30.0527 140.205 30.0955C140.205 30.0955 140.205 30.0955 140.162 30.0955C140.847 30.4808 141.489 30.8661 142.131 31.2942C142.174 31.2942 142.174 31.337 142.217 31.337C142.474 31.5083 142.731 31.6795 142.988 31.8935C143.03 31.8935 143.03 31.9364 143.073 31.9364C143.33 32.1076 143.544 32.3216 143.801 32.5357C143.887 32.5785 143.929 32.6641 143.972 32.7069C144.186 32.8782 144.4 33.0922 144.614 33.2635C144.657 33.3063 144.657 33.3063 144.7 33.3491C146.284 34.8475 147.74 36.6883 148.938 39.0001H153.904C152.748 34.7618 151.207 32.1076 149.195 30.2239Z" fill="#65B9E2"/><path d="M144.784 26.5422C146.325 25.0867 147.738 23.2886 148.937 21.0625H136.094V24.3161C137.721 24.4445 139.647 24.7014 141.488 25.2151C142.644 25.5576 143.8 25.9857 144.784 26.5422Z" fill="#BFE3EA"/><path d="M140.287 29.7962C140.93 29.4109 141.572 29.0256 142.214 28.5975L142.257 28.5547C142.514 28.3834 142.77 28.2122 143.027 27.9981C143.07 27.9553 143.113 27.9553 143.156 27.9125C143.413 27.6984 143.669 27.5272 143.926 27.3131C143.969 27.2703 144.012 27.2275 144.098 27.1847C144.312 27.0135 144.483 26.8422 144.697 26.671C144.74 26.6282 144.782 26.5854 144.825 26.5426C143.841 25.986 142.685 25.5579 141.529 25.2154C139.688 24.7017 137.762 24.4448 136.135 24.3164V28.1265C137.205 28.5118 138.275 28.8971 139.303 29.3252C139.602 29.4537 139.945 29.6249 140.287 29.7962Z" fill="#0088C2"/><path d="M141.145 34.8052C139.39 35.2761 137.592 35.5758 136.051 35.7042V39.0006H148.98C147.738 36.6888 146.325 34.848 144.741 33.3496C143.714 33.9918 142.43 34.4627 141.145 34.8052Z" fill="#BFE3EA"/><path d="M144.784 33.3483C144.741 33.3055 144.741 33.3055 144.699 33.2627C144.484 33.0915 144.27 32.8774 144.056 32.7062C144.014 32.6634 143.928 32.5777 143.885 32.5349C143.628 32.3209 143.414 32.1496 143.157 31.9356C143.115 31.9356 143.115 31.8928 143.072 31.8928C142.815 31.7215 142.558 31.5075 142.301 31.3362C142.258 31.3362 142.258 31.2934 142.215 31.2934C141.573 30.8653 140.931 30.48 140.246 30.0947C140.075 30.1803 139.904 30.266 139.732 30.3516C139.518 30.4372 139.304 30.5656 139.09 30.6513C138.962 30.6941 138.876 30.7797 138.748 30.8225C138.405 30.9938 138.063 31.1222 137.72 31.2506C137.164 31.4647 136.607 31.6787 136.051 31.8928V35.6173C137.592 35.4889 139.39 35.232 141.145 34.7183C142.43 34.4614 143.714 33.9905 144.784 33.3483Z" fill="#0088C2"/><path d="M138.746 30.866C138.789 30.866 138.789 30.8232 138.746 30.866C138.875 30.8232 139.003 30.7376 139.131 30.6948C139.346 30.6092 139.56 30.4807 139.774 30.3951C139.945 30.3095 140.116 30.2239 140.287 30.1382C140.287 30.1382 140.287 30.1382 140.33 30.1382C140.373 30.0954 140.459 30.0954 140.501 30.0526C140.544 30.0098 140.587 30.0098 140.673 29.967C140.587 29.9242 140.459 29.8814 140.373 29.8386C140.031 29.6673 139.645 29.4961 139.303 29.3676C138.275 28.9395 137.205 28.5114 136.135 28.1689V28.2118V31.8506V32.0219C136.691 31.8078 137.248 31.5938 137.804 31.3797C138.104 31.1657 138.447 30.9944 138.746 30.866Z" fill="#65B9E2"/><path d="M136.094 0.0419922V1.45473C136.393 0.941007 136.693 0.470097 137.036 0.0419922H136.094Z" fill="#EF7D00"/><path d="M136.094 13.2275V17.9795H141.06C138.962 16.9521 137.207 15.2824 136.094 13.2275Z" fill="#F39200"/><path d="M153.989 17.9793V16.3525C153.261 16.9947 152.448 17.5512 151.549 17.9793H153.989Z" fill="#F39200"/><path d="M141.06 17.9809H151.591C152.447 17.5528 153.304 16.9962 154.031 16.3541V13.4002C153.989 13.443 153.903 13.4858 153.86 13.5286C153.774 13.6142 153.689 13.657 153.646 13.7426C149.279 17.0391 143.029 16.0972 139.69 11.6449C137.078 8.13448 137.036 3.55374 139.219 0.128906H137.036C136.693 0.599822 136.351 1.07074 136.094 1.54166V13.2717C137.207 15.2838 138.962 16.9534 141.06 17.9809Z" fill="#FBBA00"/><path d="M139.647 11.6008C142.986 16.0531 149.194 16.9949 153.603 13.6985C153.689 13.6557 153.775 13.5701 153.818 13.4845C153.86 13.4417 153.946 13.3989 153.989 13.3561V13.2704C150.436 15.2825 145.855 14.3407 143.329 10.9159C143.329 10.9159 143.329 10.873 143.286 10.873C143.201 10.7874 143.115 10.7018 143.072 10.6162C143.029 10.5306 142.986 10.4449 142.901 10.3593C142.858 10.3165 142.815 10.2737 142.815 10.2737C140.247 7.36258 140.118 3.12435 142.259 0.0419922H139.176C137.036 3.50964 137.079 8.09036 139.647 11.6008Z" fill="#EF7D00"/><path d="M153.988 1.96846V0.0419922H151.162C152.275 0.470097 153.26 1.11225 153.988 1.96846Z" fill="#F39200"/><path d="M142.815 10.2737C142.857 10.3165 142.9 10.3593 142.9 10.3593C142.044 8.94658 141.616 7.36258 141.659 5.82141C141.659 3.72369 142.429 1.62598 143.97 0.0419922H142.258C140.16 3.12435 140.289 7.36258 142.815 10.2737Z" fill="#F39200"/><path d="M142.045 6.37876C142.216 4.28105 143.458 2.35458 145.427 1.49837C146.155 1.15588 146.925 1.02745 147.696 1.02745C149.965 1.07026 152.191 2.48301 153.218 4.88039C153.561 5.69379 153.732 6.50719 153.732 7.27778C153.818 9.67517 152.533 11.9441 150.307 12.9288C150.222 12.9716 150.179 12.9716 150.093 13.0144C150.008 13.0572 149.922 13.1 149.836 13.1C149.879 13.1 149.879 13.0572 149.922 13.0572C149.366 13.2712 148.766 13.4425 148.167 13.4853C148.381 13.4853 148.552 13.5281 148.766 13.5281C150.821 13.5709 152.705 12.6719 153.989 11.2164V1.92647C153.218 1.07026 152.277 0.385294 151.164 0H146.626C144.014 0.984641 142.131 3.42484 142.045 6.37876Z" fill="#EF7D00"/><path d="M142.901 10.3601C142.944 10.4458 142.987 10.5314 143.073 10.617C143.158 10.7026 143.244 10.7882 143.287 10.8739C143.073 10.5314 142.859 10.2317 142.687 9.84641C142.559 9.63236 142.473 9.37549 142.388 9.16144C142.131 8.47647 142.002 7.74869 141.96 7.02092C141.96 6.89248 141.96 6.80687 141.96 6.67844C141.96 6.63563 141.96 6.55001 141.96 6.5072C141.96 6.46439 141.96 6.42157 141.96 6.37876C141.96 6.37876 141.96 6.37876 141.96 6.33595C142.088 3.38202 143.972 0.94183 146.54 0H143.886C142.388 1.58399 141.617 3.63889 141.574 5.77941C141.66 7.40621 142.045 8.94739 142.901 10.3601Z" fill="#FBBA00"/><path d="M150.093 13.0572C150.179 13.0144 150.222 13.0144 150.307 12.9716C152.533 11.987 153.818 9.71803 153.732 7.32064C153.689 6.50725 153.518 5.69384 153.218 4.92326C152.191 2.56868 149.965 1.11312 147.696 1.07031C146.925 1.07031 146.155 1.19875 145.427 1.54123C143.458 2.39744 142.216 4.32391 142.045 6.42162C142.045 6.42162 142.045 6.42162 142.045 6.46444C142.045 6.55006 142.045 6.63568 142.045 6.7213V6.7641C142.045 6.89253 142.045 6.97816 142.045 7.10659C142.088 7.83437 142.216 8.56215 142.473 9.24712C142.559 9.46117 142.644 9.67522 142.73 9.84646C142.045 7.40626 143.158 4.83763 145.384 3.85299C147.824 2.78273 150.735 4.02424 151.891 6.67849C152.919 9.11868 152.063 11.8586 150.008 13.1429C149.965 13.1429 149.965 13.1857 149.922 13.1857C149.965 13.1001 150.008 13.0572 150.093 13.0572Z" fill="#FBBA00"/><path d="M156.986 6.42075H174.924V0.0419922H156.986V6.42075Z" fill="#3AAA35"/><path d="M156.986 15.5403H174.924V11.9014H156.986V15.5403Z" fill="#3AAA35"/><path d="M156.986 15.5829V17.9802H174.924V15.5829V15.54H156.986V15.5829Z" fill="#B0CA0A"/><path d="M156.986 11.8592H174.924V10.2324H156.986V11.8592Z" fill="#B0CA0A"/><path d="M156.986 6.5503V8.21992H174.924V6.5503V6.42188H156.986V6.5503Z" fill="#B0CA0A"/><path d="M12.5007 29.6243L11.4304 26.3707H4.8804L3.76732 29.6243H0L6.67844 11.2158H9.50393L16.2252 29.6243H12.5007ZM8.21961 16.6527L5.90785 23.3312H10.4886L8.21961 16.6527Z" fill="#706F6F"/><path d="M28.3383 29.6243V14.4266H23.9288V19.7779C23.9288 27.4838 22.0451 29.6243 18.235 29.6243H16.8223V26.4135H17.336C19.1768 26.4135 20.504 25.3433 20.504 19.5639V11.2158H31.9344V29.6243H28.3383Z" fill="#706F6F"/><path d="M54.3684 13.0989C55.7384 14.5116 56.1665 16.2668 56.1665 18.7926V20.6763C56.1665 23.7587 56.1237 25.8992 54.3684 27.74C53.0841 29.0672 51.4145 29.7521 49.4024 29.7521C47.3903 29.7521 45.7207 29.0672 44.4364 27.74C42.8952 26.1989 42.6384 24.3152 42.5956 21.9178H39.8129V29.6237H36.2168V11.2152H39.8129V18.707H42.5956C42.6812 16.01 43.0237 14.5116 44.3936 13.056C45.6779 11.7289 47.3475 11.0439 49.3596 11.0439C51.3717 11.0868 53.0413 11.7289 54.3684 13.0989ZM52.6132 19.7345C52.6132 17.3371 52.442 16.0528 51.7142 15.2394C51.1577 14.5972 50.3014 14.2547 49.4024 14.2547C48.4606 14.2547 47.6472 14.5972 47.0907 15.2394C46.3629 16.0528 46.1916 17.5511 46.1916 19.8629V21.0188C46.1916 23.7159 46.4057 24.7861 47.0907 25.5567C47.6472 26.1989 48.5034 26.5842 49.4024 26.5842C50.3014 26.5842 51.1577 26.2417 51.7142 25.5567C52.4848 24.7005 52.6132 23.3734 52.6132 20.8476V19.7345Z" fill="#706F6F"/><path d="M66.3557 14.4266V29.6243H62.7596V14.4266H57.9648V11.2158H71.1505V14.4266H66.3557Z" fill="#706F6F"/><path d="M74.1035 29.6243V11.2158H86.2189V14.4266H77.6996V18.7505H84.9774V21.9612H77.6996V26.4135H86.2189V29.6243H74.1035Z" fill="#706F6F"/><path d="M98.9351 29.6235L95.3818 23.2019L91.8286 29.6235H87.7188L93.4125 20.2052L88.0612 11.2578H92.1282L95.339 17.2085L98.5498 11.2578H102.617L97.2655 20.2052L103.002 29.6235H98.9351Z" fill="#706F6F"/><path d="M104.672 23.801V20.6758H112.635V23.801H104.672Z" fill="#706F6F"/><path d="M116.357 29.6243V11.2158H119.953V19.9492L125.904 11.2158H130.185L124.02 19.8635L130.827 29.6243H126.418L119.953 20.0348V29.6243H116.357Z" fill="#706F6F"/></svg>
