<?xml version="1.0" encoding="UTF-8"?>
<svg id="_Слой_1" data-name="Слой_1" xmlns="http://www.w3.org/2000/svg" version="1.1" viewBox="0 0 178 29">
  <!-- Generator: Adobe Illustrator 29.7.1, SVG Export Plug-In . SVG Version: 2.1.1 Build 8)  -->
  <defs>
    <style>
      .st0 {
        fill: #ea6527;
      }

      .st1 {
        fill: #2b3234;
      }
    </style>
  </defs>
  <path class="st1" d="M14.5,10.2l-3.7,10-3.7-9.9c-.7-1.9-2.5-3.1-4.5-3.1H0l7.6,18.9c.5,1.3,1.7,2.1,3.1,2.1s2.6-.8,3.1-2.1l7.6-18.9h-2.5c-2,0-3.8,1.2-4.5,3.1h0Z"/>
  <path class="st1" d="M23.5,11.3v16.7h1.2c2.3,0,4.2-1.9,4.2-4.2V7.1h-1.2c-2.3,0-4.2,1.9-4.2,4.2Z"/>
  <path class="st1" d="M66.9,11.3v7.1l-7.7-10.1c-.5-.7-1.4-1.2-2.3-1.2h-.4c-1.6,0-2.9,1.3-2.9,2.9v18h1.2c2.3,0,4.2-1.9,4.2-4.2v-7.5l8,10.5c.6.7,1.4,1.2,2.3,1.2h0c1.6,0,2.9-1.3,2.9-2.9V7.1h-1.2c-2.3,0-4.2,1.9-4.2,4.2h0Z"/>
  <path class="st1" d="M85.5,7h-.3c-1.3,0-2.5.8-3,2l-8.1,19h2.8c1.7,0,3.2-1,3.8-2.6l.8-1.9h7.7l.8,1.9c.6,1.6,2.2,2.6,3.8,2.6h2.9l-8.1-19c-.5-1.2-1.7-2-3-2h0ZM87.2,18.7h-3.8l1.9-4.6,1.9,4.6Z"/>
  <path class="st1" d="M116.1,14.3c0-2-.6-3.7-1.8-5-1.4-1.4-3.5-2.2-6.2-2.2h-6.7c-1.5,0-2.8,1.1-2.9,2.6,0,.1,0,.2,0,.3v18h1.2c2.3,0,4.2-1.9,4.2-4.2v-2.2h2.6l.6.9,2.8,3.8c.8,1.1,2,1.7,3.3,1.7s1.8-.3,2.5-.8l1-.7-4.4-5.9c2.4-1.2,3.8-3.4,3.8-6.3h0ZM110.6,14.4c0,1.1-.6,1.9-1.7,2.2h0c-.3.1-.7.2-1.2.2h-3.9v-4.7h3.8c1.3,0,2.9.4,2.9,2.3h0Z"/>
  <path class="st1" d="M129.3,6.8c-6.2,0-11.1,4.7-11.1,10.8s4.7,10.8,11.1,10.8,11.1-4.7,11.1-10.8-4.8-10.8-11.1-10.8ZM134.7,17.6c0,3.3-2.4,5.7-5.5,5.7s-5.5-2.5-5.5-5.7,2.3-5.8,5.5-5.8,5.5,2.5,5.5,5.8Z"/>
  <path class="st1" d="M143.2,10.1v18h1.2c2.3,0,4.2-1.9,4.2-4.2v-3.5h5.3c2.3,0,4.2-1.9,4.2-4.2v-.8h-9.5v-3.2h6.6c2.3,0,4.2-1.9,4.2-4.2v-.8h-13.2c-1.6,0-2.9,1.3-2.9,2.9h0Z"/>
  <path class="st1" d="M164.8,7.1c-1.6,0-2.9,1.3-2.9,2.9v18h1.2c2.3,0,4.2-1.9,4.2-4.2v-3.5h5.3c2.3,0,4.2-1.9,4.2-4.2v-.8h-9.5v-3.2h6.6c2.3,0,4.2-1.9,4.2-4.2v-.8h-13.2Z"/>
  <path class="st1" d="M50.9,8.8l-.5-.5c-.8-.8-1.8-1.2-2.9-1.2s-2.2.4-3,1.3l-6.3,6.5v-7.8h-1.2c-2.3,0-4.2,1.9-4.2,4.2v16.7h1.2c2.3,0,4.2-1.9,4.2-4.2v-2l1.8-1.9,4.7,6.4c.7.9,1.7,1.5,2.8,1.6.2,0,.4,0,.6,0s.4,0,.5,0c.7,0,1.4-.4,1.9-.8l1-.7-7.7-10.4,7.1-7.3h0Z"/>
  <path class="st0" d="M120.5.6h.6v4.1c0,2.2-1.8,3.9-3.9,3.9h-.6v-4.1c0-2.2,1.8-4,3.9-3.9Z"/>
</svg>